<svg width="90" height="53" viewBox="0 0 90 53" fill="none" xmlns="http://www.w3.org/2000/svg">
<rect x="0.210756" y="0.115531" width="9.5" height="10.2575" transform="matrix(0.843023 -0.537877 1.99352e-08 1 8.17249 21.0008)" fill="white" stroke="black" stroke-width="0.5"/>
<rect x="0.210756" y="0.115531" width="9.5" height="10.2575" transform="matrix(0.843023 -0.537877 1.99352e-08 1 16.2184 15.8312)" fill="white" stroke="black" stroke-width="0.5"/>
<rect x="0.210756" y="0.115531" width="9.5" height="10.2575" transform="matrix(0.843023 -0.537877 1.99352e-08 1 24.2643 10.6617)" fill="white" stroke="black" stroke-width="0.5"/>
<rect x="0.421512" width="9.5" height="9.5" transform="matrix(0.843023 -0.537877 0.843023 0.537877 8.11207 21.1141)" fill="#68BB69" stroke="black" stroke-width="0.5"/>
<rect x="0.421512" width="9.5" height="9.5" transform="matrix(0.843023 -0.537877 0.843023 0.537877 8.11207 10.775)" fill="#68BB69" stroke="black" stroke-width="0.5"/>
<rect x="0.421512" width="9.5" height="9.5" transform="matrix(0.843023 -0.537877 0.843023 0.537877 16.158 5.60549)" fill="#68BB69" stroke="black" stroke-width="0.5"/>
<rect x="0.210756" y="0.384469" width="9.5" height="10.2575" transform="matrix(0.843023 0.537877 -1.99352e-08 1 32.2167 35.9246)" fill="white" stroke="black" stroke-width="0.5"/>
<rect x="0.210756" y="0.115531" width="9.5" height="10.2575" transform="matrix(0.843023 -0.537877 1.99352e-08 1 40.2626 41.6789)" fill="white" stroke="black" stroke-width="0.5"/>
<rect x="0.210756" y="0.115531" width="9.5" height="10.2575" transform="matrix(0.843023 -0.537877 1.99352e-08 1 48.3087 36.5093)" fill="white" stroke="black" stroke-width="0.5"/>
<rect x="0.210756" y="0.115531" width="9.5" height="10.2575" transform="matrix(0.843023 -0.537877 1.99352e-08 1 56.3544 31.3398)" fill="white" stroke="black" stroke-width="0.5"/>
<rect x="0.210756" y="0.115531" width="9.5" height="10.2575" transform="matrix(0.843023 -0.537877 1.99352e-08 1 64.4003 26.1702)" fill="white" stroke="black" stroke-width="0.5"/>
<rect x="0.210756" y="0.115531" width="9.39318" height="10.1426" transform="matrix(0.843023 -0.537877 1.99352e-08 1 80.3986 26.1702)" fill="white" stroke="black" stroke-width="0.5"/>
<rect x="0.210756" y="0.384469" width="9.5" height="10.2575" transform="matrix(0.843023 0.537877 -1.99352e-08 1 32.2167 15.6045)" fill="white" stroke="black" stroke-width="0.5"/>
<rect x="0.210756" y="0.384469" width="9.5" height="10.2575" transform="matrix(0.843023 0.537877 -1.99352e-08 1 24.1708 30.7551)" fill="white" stroke="black" stroke-width="0.5"/>
<rect x="0.210756" y="0.384469" width="9.5" height="10.2575" transform="matrix(0.843023 0.537877 -1.99352e-08 1 16.1249 25.5856)" fill="white" stroke="black" stroke-width="0.5"/>
<rect x="0.210756" y="0.384469" width="9.5" height="10.2575" transform="matrix(0.843023 0.537877 -1.99352e-08 1 8.07898 20.4161)" fill="white" stroke="black" stroke-width="0.5"/>
<rect x="0.210756" y="0.384469" width="9.5" height="10.2575" transform="matrix(0.843023 0.537877 -1.99352e-08 1 0.0330838 15.2465)" fill="white" stroke="black" stroke-width="0.5"/>
<path d="M72.5303 21.2719L80.5391 26.3817L80.5391 36.6392L72.5303 31.5294L72.5303 21.2719Z" fill="white" stroke="black" stroke-width="0.5"/>
<path d="M56.6258 10.9328L64.6345 16.0426L64.6345 26.3001L56.6258 21.1903L56.6258 10.9328Z" fill="white" stroke="black" stroke-width="0.5"/>
<rect x="0.421512" width="9.5" height="9.5" transform="matrix(0.843023 -0.537877 0.843023 0.537877 24.2039 21.1141)" fill="#68BB69" stroke="black" stroke-width="0.5"/>
<rect x="0.421512" width="9.5" height="9.5" transform="matrix(0.843023 -0.537877 0.843023 0.537877 40.2957 31.4532)" fill="#68BB69" stroke="black" stroke-width="0.5"/>
<rect x="0.421512" width="9.5" height="9.5" transform="matrix(0.843023 -0.537877 0.843023 0.537877 48.3418 26.2836)" fill="#68BB69" stroke="black" stroke-width="0.5"/>
<rect x="0.421512" width="9.5" height="9.5" transform="matrix(0.843023 -0.537877 0.843023 0.537877 16.158 26.2836)" fill="#68BB69" stroke="black" stroke-width="0.5"/>
<rect x="0.421512" width="9.5" height="9.5" transform="matrix(0.843023 -0.537877 0.843023 0.537877 24.2039 31.4532)" fill="#68BB69" stroke="black" stroke-width="0.5"/>
<rect x="0.421512" width="9.5" height="9.5" transform="matrix(0.843023 -0.537877 0.843023 0.537877 32.2498 36.6227)" fill="#68BB69" stroke="black" stroke-width="0.5"/>
<rect x="0.421512" width="9.5" height="9.5" transform="matrix(0.843023 -0.537877 0.843023 0.537877 64.4334 15.9445)" fill="#68BB69" stroke="black" stroke-width="0.5"/>
<rect x="0.421512" width="9.5" height="9.5" transform="matrix(0.843023 -0.537877 0.843023 0.537877 72.3857 21.1141)" fill="#68BB69" stroke="black" stroke-width="0.5"/>
<rect x="0.421512" width="9.5" height="9.5" transform="matrix(0.843023 -0.537877 0.843023 0.537877 56.4812 10.775)" fill="#68BB69" stroke="black" stroke-width="0.5"/>
<rect x="0.421512" width="9.5" height="9.5" transform="matrix(0.843023 -0.537877 0.843023 0.537877 56.3875 21.1141)" fill="#68BB69" stroke="black" stroke-width="0.5"/>
<rect x="0.421512" width="9.5" height="9.5" transform="matrix(0.843023 -0.537877 0.843023 0.537877 0.0661675 15.9445)" fill="#68BB69" stroke="black" stroke-width="0.5"/>
</svg>
