<svg width="1440" height="820" viewBox="0 0 1440 820" fill="none" xmlns="http://www.w3.org/2000/svg">
<g clip-path="url(#clip0_205_7)">
<rect width="1440" height="820" fill="url(#paint0_radial_205_7)"/>
<rect x="-0.748417" y="0.434168" width="167.908" height="178.651" transform="matrix(-0.496834 0.867846 -1 0.000489277 1368.58 223.834)" stroke="#272B2C"/>
<rect x="-0.226486" y="0.418802" width="174.004" height="178.651" transform="matrix(0.547029 0.837114 -1 0.000489277 1285.67 369.945)" stroke="#272B2C"/>
<rect x="0.0250976" y="0.85248" width="174.004" height="167.908" transform="matrix(0.547029 0.837114 -0.496834 0.867846 1369.54 222.842)" stroke="#272B2C"/>
<rect x="-0.748417" y="0.434168" width="167.908" height="178.651" transform="matrix(-0.496834 0.867846 -1 0.000489277 1106.73 370.58)" stroke="#272B2C"/>
<rect x="-0.226486" y="0.418802" width="174.004" height="178.651" transform="matrix(0.547029 0.837114 -1 0.000489277 1023.82 516.69)" stroke="#272B2C"/>
<rect x="0.0250976" y="0.85248" width="174.004" height="167.908" transform="matrix(0.547029 0.837114 -0.496834 0.867846 1107.69 369.588)" stroke="#272B2C"/>
<rect x="-0.748417" y="0.434168" width="167.908" height="178.651" transform="matrix(-0.496834 0.867846 -1 0.000489277 844.883 517.326)" stroke="#272B2C"/>
<rect x="-0.226486" y="0.418802" width="174.004" height="178.651" transform="matrix(0.547029 0.837114 -1 0.000489277 761.966 663.436)" stroke="#272B2C"/>
<rect x="0.0250976" y="0.85248" width="174.004" height="167.908" transform="matrix(0.547029 0.837114 -0.496834 0.867846 845.842 516.334)" stroke="#272B2C"/>
<rect x="-0.748417" y="0.434168" width="167.908" height="178.651" transform="matrix(-0.496834 0.867846 -1 0.000489277 569.713 368.882)" stroke="#272B2C"/>
<rect x="-0.226486" y="0.418802" width="174.004" height="178.651" transform="matrix(0.547029 0.837114 -1 0.000489277 486.795 514.993)" stroke="#272B2C"/>
<rect x="0.0250976" y="0.85248" width="174.004" height="167.908" transform="matrix(0.547029 0.837114 -0.496834 0.867846 570.671 367.891)" stroke="#272B2C"/>
<rect x="-0.748417" y="0.434168" width="167.908" height="178.651" transform="matrix(-0.496834 0.867846 -1 0.000489277 294.468 226.439)" stroke="#272B2C"/>
<rect x="-0.226486" y="0.418802" width="174.004" height="178.651" transform="matrix(0.547029 0.837114 -1 0.000489277 211.551 372.549)" stroke="#272B2C"/>
<rect x="0.0250976" y="0.85248" width="174.004" height="167.908" transform="matrix(0.547029 0.837114 -0.496834 0.867846 295.427 225.447)" stroke="#272B2C"/>
<rect x="-0.748417" y="0.434168" width="167.908" height="178.651" transform="matrix(-0.496834 0.867846 -1 0.000489277 19.2228 83.9948)" stroke="#272B2C"/>
<rect x="-0.226486" y="0.418802" width="174.004" height="178.651" transform="matrix(0.547029 0.837114 -1 0.000489277 -63.6943 230.106)" stroke="#272B2C"/>
<rect x="0.0250976" y="0.85248" width="174.004" height="167.908" transform="matrix(0.547029 0.837114 -0.496834 0.867846 20.1817 83.0033)" stroke="#272B2C"/>
<rect x="-0.748417" y="0.434168" width="167.908" height="178.651" transform="matrix(-0.496834 0.867846 -1 0.000489277 1381.93 517.023)" stroke="#272B2C"/>
<rect x="-0.226486" y="0.418802" width="174.004" height="178.651" transform="matrix(0.547029 0.837114 -1 0.000489277 1299.01 663.134)" stroke="#272B2C"/>
<rect x="0.0250976" y="0.85248" width="174.004" height="167.908" transform="matrix(0.547029 0.837114 -0.496834 0.867846 1382.89 516.032)" stroke="#272B2C"/>
<rect x="-0.748417" y="0.434168" width="167.908" height="178.651" transform="matrix(-0.496834 0.867846 -1 0.000489277 1120.08 663.769)" stroke="#272B2C"/>
<rect x="-0.226486" y="0.418802" width="174.004" height="178.651" transform="matrix(0.547029 0.837114 -1 0.000489277 1037.16 809.88)" stroke="#272B2C"/>
<rect x="0.0250976" y="0.85248" width="174.004" height="167.908" transform="matrix(0.547029 0.837114 -0.496834 0.867846 1121.04 662.777)" stroke="#272B2C"/>
<rect x="-0.748417" y="0.434168" width="167.908" height="178.651" transform="matrix(-0.496834 0.867846 -1 0.000489277 858.227 810.515)" stroke="#272B2C"/>
<rect x="0.0250976" y="0.85248" width="174.004" height="167.908" transform="matrix(0.547029 0.837114 -0.496834 0.867846 859.186 809.523)" stroke="#272B2C"/>
<rect x="-0.748417" y="0.434168" width="167.908" height="178.651" transform="matrix(-0.496834 0.867846 -1 0.000489277 583.057 662.072)" stroke="#272B2C"/>
<rect x="-0.226486" y="0.418802" width="174.004" height="178.651" transform="matrix(0.547029 0.837114 -1 0.000489277 500.14 808.182)" stroke="#272B2C"/>
<rect x="0.0250976" y="0.85248" width="174.004" height="167.908" transform="matrix(0.547029 0.837114 -0.496834 0.867846 584.016 661.08)" stroke="#272B2C"/>
<rect x="-0.748417" y="0.434168" width="167.908" height="178.651" transform="matrix(-0.496834 0.867846 -1 0.000489277 307.812 519.628)" stroke="#272B2C"/>
<rect x="-0.226486" y="0.418802" width="174.004" height="178.651" transform="matrix(0.547029 0.837114 -1 0.000489277 224.895 665.739)" stroke="#272B2C"/>
<rect x="0.0250976" y="0.85248" width="174.004" height="167.908" transform="matrix(0.547029 0.837114 -0.496834 0.867846 308.771 518.636)" stroke="#272B2C"/>
<rect x="-0.748417" y="0.434168" width="167.908" height="178.651" transform="matrix(-0.496834 0.867846 -1 0.000489277 33.5673 377.197)" stroke="#272B2C"/>
<rect x="-0.226486" y="0.418802" width="174.004" height="178.651" transform="matrix(0.547029 0.837114 -1 0.000489277 -49.3498 523.307)" stroke="#272B2C"/>
<rect x="0.0250976" y="0.85248" width="174.004" height="167.908" transform="matrix(0.547029 0.837114 -0.496834 0.867846 34.5262 376.205)" stroke="#272B2C"/>
<rect x="-0.748417" y="0.434168" width="167.908" height="178.651" transform="matrix(-0.496834 0.867846 -1 0.000489277 1643.77 371.277)" stroke="#272B2C"/>
<rect x="-0.226486" y="0.418802" width="174.004" height="178.651" transform="matrix(0.547029 0.837114 -1 0.000489277 1560.85 517.388)" stroke="#272B2C"/>
<rect x="-0.748417" y="0.434168" width="167.908" height="178.651" transform="matrix(-0.496834 0.867846 -1 0.000489277 1632.45 76.1131)" stroke="#272B2C"/>
<rect x="-0.226486" y="0.418802" width="174.004" height="178.651" transform="matrix(0.547029 0.837114 -1 0.000489277 1549.53 222.224)" stroke="#272B2C"/>
<rect x="134.844" y="167.148" width="20" height="20" transform="rotate(9.05442 134.844 167.148)" fill="#272B2C"/>
<rect x="290.275" y="398.341" width="20" height="20" transform="rotate(-43.8479 290.275 398.341)" fill="#272B2C"/>
<rect x="1017.88" y="434.418" width="20" height="20" transform="rotate(-43.8479 1017.88 434.418)" fill="#272B2C"/>
<rect x="1310.69" y="211.053" width="20" height="20" transform="rotate(-43.8479 1310.69 211.053)" fill="#272B2C"/>
<rect x="307.657" y="688.581" width="15" height="15" transform="rotate(-43.8479 307.657 688.581)" fill="#272B2C"/>
<rect x="976.412" y="712.414" width="15" height="15" transform="rotate(-43.8479 976.412 712.414)" fill="#272B2C"/>
<rect x="719.712" y="446.192" width="10" height="10" transform="rotate(-43.8479 719.712 446.192)" fill="#272B2C"/>
<rect x="122.889" y="428.239" width="10" height="10" transform="rotate(-43.8479 122.889 428.239)" fill="#272B2C"/>
<rect x="157.804" y="595.688" width="10" height="10" transform="rotate(-43.8479 157.804 595.688)" fill="#272B2C"/>
<rect x="698.302" y="719.438" width="10" height="10" transform="rotate(-43.8479 698.302 719.438)" fill="#272B2C"/>
<rect x="1385.66" y="615.002" width="10" height="10" transform="rotate(-43.8479 1385.66 615.002)" fill="#272B2C"/>
<rect x="1368.33" y="400.769" width="10" height="10" transform="rotate(-43.8479 1368.33 400.769)" fill="#272B2C"/>
<rect x="1076.35" y="317.122" width="5" height="5" transform="rotate(-43.8479 1076.35 317.122)" fill="#272B2C"/>
<rect x="423.232" y="322.468" width="5" height="5" transform="rotate(-43.8479 423.232 322.468)" fill="#272B2C"/>
<rect x="600.686" y="527.697" width="5" height="5" transform="rotate(-43.8479 600.686 527.697)" fill="#272B2C"/>
<rect x="778.14" y="732.926" width="5" height="5" transform="rotate(-43.8479 778.14 732.926)" fill="#272B2C"/>
<rect x="937.999" y="584.909" width="5" height="5" transform="rotate(-43.8479 937.999 584.909)" fill="#272B2C"/>
<rect x="449.825" y="595.821" width="5" height="5" transform="rotate(-43.8479 449.825 595.821)" fill="#272B2C"/>
</g>
<defs>
<radialGradient id="paint0_radial_205_7" cx="0" cy="0" r="1" gradientUnits="userSpaceOnUse" gradientTransform="translate(720 11.5) rotate(90) scale(914.5 1605.95)">
<stop offset="0.363669" stop-color="white"/>
<stop offset="0.426737" stop-color="white"/>
<stop offset="0.686212" stop-color="#68BB69"/>
<stop offset="1"/>
</radialGradient>
<clipPath id="clip0_205_7">
<rect width="1440" height="820" fill="white"/>
</clipPath>
</defs>
</svg>
