<svg width="1440" height="820" viewBox="0 0 1440 820" fill="none" xmlns="http://www.w3.org/2000/svg">
<g clip-path="url(#clip0_205_304)">
<rect width="1440" height="820" fill="url(#paint0_radial_205_304)"/>
<rect x="-0.371472" y="0.221734" width="168.408" height="179.151" transform="matrix(-0.485972 0.873975 -0.999916 0.0129605 1358.39 361.544)" stroke="#272B2C" stroke-width="0.5"/>
<rect x="-0.110622" y="0.210797" width="174.504" height="179.151" transform="matrix(0.557426 0.830227 -0.999916 0.0129605 1276.8 508.921)" stroke="#272B2C" stroke-width="0.5"/>
<rect x="0.0178636" y="0.42605" width="174.504" height="168.408" transform="matrix(0.557426 0.830227 -0.485972 0.873975 1358.77 361.041)" stroke="#272B2C" stroke-width="0.5"/>
<rect x="-0.371472" y="0.221734" width="168.408" height="179.151" transform="matrix(-0.485972 0.873975 -0.999916 0.0129605 1098.39 511.544)" stroke="#272B2C" stroke-width="0.5"/>
<rect x="-0.110622" y="0.210797" width="174.504" height="179.151" transform="matrix(0.557426 0.830227 -0.999916 0.0129605 1016.8 658.921)" stroke="#272B2C" stroke-width="0.5"/>
<rect x="0.0178636" y="0.42605" width="174.504" height="168.408" transform="matrix(0.557426 0.830227 -0.485972 0.873975 1098.77 511.041)" stroke="#272B2C" stroke-width="0.5"/>
<rect x="-0.371472" y="0.221734" width="168.408" height="179.151" transform="matrix(-0.485972 0.873975 -0.999916 0.0129605 838.39 661.544)" stroke="#272B2C" stroke-width="0.5"/>
<rect x="-0.110622" y="0.210797" width="174.504" height="179.151" transform="matrix(0.557426 0.830227 -0.999916 0.0129605 756.798 808.921)" stroke="#272B2C" stroke-width="0.5"/>
<rect x="0.0178636" y="0.42605" width="174.504" height="168.408" transform="matrix(0.557426 0.830227 -0.485972 0.873975 838.774 661.041)" stroke="#272B2C" stroke-width="0.5"/>
<rect x="-0.371472" y="0.221734" width="168.408" height="179.151" transform="matrix(-0.485972 0.873975 -0.999916 0.0129605 561.39 516.544)" stroke="#272B2C" stroke-width="0.5"/>
<rect x="-0.110622" y="0.210797" width="174.504" height="179.151" transform="matrix(0.557426 0.830227 -0.999916 0.0129605 479.798 663.921)" stroke="#272B2C" stroke-width="0.5"/>
<rect x="0.0178636" y="0.42605" width="174.504" height="168.408" transform="matrix(0.557426 0.830227 -0.485972 0.873975 561.774 516.041)" stroke="#272B2C" stroke-width="0.5"/>
<rect x="-0.371472" y="0.221734" width="168.408" height="179.151" transform="matrix(-0.485972 0.873975 -0.999916 0.0129605 284.39 377.544)" stroke="#272B2C" stroke-width="0.5"/>
<rect x="-0.110622" y="0.210797" width="174.504" height="179.151" transform="matrix(0.557426 0.830227 -0.999916 0.0129605 202.798 524.921)" stroke="#272B2C" stroke-width="0.5"/>
<rect x="0.0178636" y="0.42605" width="174.504" height="168.408" transform="matrix(0.557426 0.830227 -0.485972 0.873975 284.774 377.041)" stroke="#272B2C" stroke-width="0.5"/>
<rect x="-0.371472" y="0.221734" width="168.408" height="179.151" transform="matrix(-0.485972 0.873975 -0.999916 0.0129605 7.39042 238.544)" stroke="#272B2C" stroke-width="0.5"/>
<rect x="-0.110622" y="0.210797" width="174.504" height="179.151" transform="matrix(0.557426 0.830227 -0.999916 0.0129605 -74.2022 385.921)" stroke="#272B2C" stroke-width="0.5"/>
<rect x="0.0178636" y="0.42605" width="174.504" height="168.408" transform="matrix(0.557426 0.830227 -0.485972 0.873975 7.77355 238.041)" stroke="#272B2C" stroke-width="0.5"/>
<rect x="-0.371472" y="0.221734" width="168.408" height="179.151" transform="matrix(-0.485972 0.873975 -0.999916 0.0129605 1375.39 654.544)" stroke="#272B2C" stroke-width="0.5"/>
<rect x="-0.110622" y="0.210797" width="174.504" height="179.151" transform="matrix(0.557426 0.830227 -0.999916 0.0129605 1293.8 801.921)" stroke="#272B2C" stroke-width="0.5"/>
<rect x="0.0178636" y="0.42605" width="174.504" height="168.408" transform="matrix(0.557426 0.830227 -0.485972 0.873975 1375.77 654.041)" stroke="#272B2C" stroke-width="0.5"/>
<rect x="-0.371472" y="0.221734" width="168.408" height="179.151" transform="matrix(-0.485972 0.873975 -0.999916 0.0129605 1115.39 804.544)" stroke="#272B2C" stroke-width="0.5"/>
<rect x="0.0178636" y="0.42605" width="174.504" height="168.408" transform="matrix(0.557426 0.830227 -0.485972 0.873975 1115.77 804.041)" stroke="#272B2C" stroke-width="0.5"/>
<rect x="-0.371472" y="0.221734" width="168.408" height="179.151" transform="matrix(-0.485972 0.873975 -0.999916 0.0129605 578.39 809.544)" stroke="#272B2C" stroke-width="0.5"/>
<rect x="0.0178636" y="0.42605" width="174.504" height="168.408" transform="matrix(0.557426 0.830227 -0.485972 0.873975 578.774 809.041)" stroke="#272B2C" stroke-width="0.5"/>
<rect x="-0.371472" y="0.221734" width="168.408" height="179.151" transform="matrix(-0.485972 0.873975 -0.999916 0.0129605 301.39 670.544)" stroke="#272B2C" stroke-width="0.5"/>
<rect x="-0.110622" y="0.210797" width="174.504" height="179.151" transform="matrix(0.557426 0.830227 -0.999916 0.0129605 219.798 817.921)" stroke="#272B2C" stroke-width="0.5"/>
<rect x="0.0178636" y="0.42605" width="174.504" height="168.408" transform="matrix(0.557426 0.830227 -0.485972 0.873975 301.774 670.041)" stroke="#272B2C" stroke-width="0.5"/>
<rect x="-0.371472" y="0.221734" width="168.408" height="179.151" transform="matrix(-0.485972 0.873975 -0.999916 0.0129605 25.3904 531.544)" stroke="#272B2C" stroke-width="0.5"/>
<rect x="-0.110622" y="0.210797" width="174.504" height="179.151" transform="matrix(0.557426 0.830227 -0.999916 0.0129605 -56.2022 678.921)" stroke="#272B2C" stroke-width="0.5"/>
<rect x="0.0178636" y="0.42605" width="174.504" height="168.408" transform="matrix(0.557426 0.830227 -0.485972 0.873975 25.7735 531.041)" stroke="#272B2C" stroke-width="0.5"/>
<rect x="-0.371472" y="0.221734" width="168.408" height="179.151" transform="matrix(-0.485972 0.873975 -0.999916 0.0129605 1635.39 505.544)" stroke="#272B2C" stroke-width="0.5"/>
<rect x="-0.110622" y="0.210797" width="174.504" height="179.151" transform="matrix(0.557426 0.830227 -0.999916 0.0129605 1553.8 652.921)" stroke="#272B2C" stroke-width="0.5"/>
<rect x="-0.371472" y="0.221734" width="168.408" height="179.151" transform="matrix(-0.485972 0.873975 -0.999916 0.0129605 1620.39 210.544)" stroke="#272B2C" stroke-width="0.5"/>
<rect x="-0.110622" y="0.210797" width="174.504" height="179.151" transform="matrix(0.557426 0.830227 -0.999916 0.0129605 1538.8 357.921)" stroke="#272B2C" stroke-width="0.5"/>
</g>
<defs>
<radialGradient id="paint0_radial_205_304" cx="0" cy="0" r="1" gradientUnits="userSpaceOnUse" gradientTransform="translate(720 11.5) rotate(90) scale(808.5 1419.8)">
<stop offset="0.363669" stop-color="white"/>
<stop offset="0.426737" stop-color="white"/>
<stop offset="0.686212" stop-color="#68BB69"/>
<stop offset="1"/>
</radialGradient>
<clipPath id="clip0_205_304">
<rect width="1440" height="820" fill="white"/>
</clipPath>
</defs>
</svg>
